# Blender v2.79 (sub 0) OBJ File: ''
# www.blender.org
mtllib lampHouse.mtl
o lantern_Cube.001
v -0.085000 0.170000 0.085000
v -0.085000 0.170000 -0.085000
v 0.085000 0.170000 0.085000
v 0.085000 0.170000 -0.085000
v -0.099959 0.159863 0.099959
v -0.099959 0.159863 -0.099959
v 0.099959 0.159863 -0.099959
v 0.099959 0.159863 0.099959
v -0.000043 0.256246 0.011416
v 0.009844 0.256246 0.005708
v 0.009844 0.256246 -0.005708
v -0.000043 0.256246 -0.011416
v -0.009930 0.256246 -0.005708
v -0.009930 0.256246 0.005708
v -0.000043 0.259534 0.011416
v 0.009844 0.259534 0.005708
v 0.009844 0.259534 -0.005708
v -0.000043 0.259534 -0.011416
v -0.009930 0.259534 -0.005708
v -0.009930 0.259534 0.005708
v -0.000043 0.259534 0.009699
v 0.008356 0.259534 0.004849
v 0.008356 0.259534 -0.004849
v -0.000043 0.259534 -0.009699
v -0.008442 0.259534 -0.004849
v -0.008442 0.259534 0.004849
v -0.000021 0.279197 0.003416
v 0.002937 0.279197 0.001708
v 0.002937 0.279197 -0.001708
v -0.000021 0.279197 -0.003416
v -0.002979 0.279197 -0.001708
v -0.002979 0.279197 0.001708
v 0.002070 0.284216 0.003416
v 0.004060 0.282027 0.001708
v 0.004060 0.282027 -0.001708
v 0.002070 0.284216 -0.003416
v 0.000080 0.286404 -0.001708
v 0.000080 0.286404 0.001708
v 0.021237 0.292252 0.003416
v 0.023309 0.290141 0.001708
v 0.023309 0.290141 -0.001708
v 0.021237 0.292252 -0.003416
v 0.019165 0.294363 -0.001708
v 0.019165 0.294363 0.001708
v 0.030077 0.313232 0.003416
v 0.033035 0.313249 0.001708
v 0.033035 0.313249 -0.001708
v 0.030077 0.313232 -0.003416
v 0.027119 0.313214 -0.001708
v 0.027119 0.313214 0.001708
v 0.021144 0.334103 0.003416
v 0.023254 0.336176 0.001708
v 0.023254 0.336176 -0.001708
v 0.021144 0.334103 -0.003416
v 0.019035 0.332029 -0.001708
v 0.019035 0.332029 0.001708
v 0.000274 0.342807 0.003416
v 0.000259 0.345765 0.001708
v 0.000259 0.345765 -0.001708
v 0.000274 0.342807 -0.003416
v 0.000288 0.339849 -0.001708
v 0.000288 0.339849 0.001708
v -0.020629 0.334150 0.003416
v -0.022702 0.336260 0.001708
v -0.022702 0.336260 -0.001708
v -0.020629 0.334150 -0.003416
v -0.018555 0.332040 -0.001708
v -0.018555 0.332040 0.001708
v -0.028659 0.313249 0.001360
v -0.029793 0.313571 0.000680
v -0.029793 0.313571 -0.000680
v -0.028659 0.313249 -0.001360
v -0.027526 0.312927 -0.000680
v -0.027526 0.312927 0.000680
v -0.024064 0.318803 0.001708
v -0.024065 0.318802 -0.001708
v -0.026652 0.319517 -0.003416
v -0.029240 0.320232 -0.001708
v -0.029240 0.320232 0.001708
v -0.026652 0.319517 0.003416
v -0.012341 0.256246 -0.012341
v 0.012341 0.256246 -0.012341
v 0.012341 0.256246 0.012341
v -0.012341 0.256246 0.012341
v -0.000021 0.275010 0.003585
v -0.003126 0.275010 0.001792
v -0.003126 0.275010 -0.001793
v -0.000021 0.275010 -0.003585
v 0.003084 0.275010 -0.001793
v 0.003084 0.275010 0.001792
v -0.062823 -0.000000 -0.062823
v 0.062823 -0.000000 -0.062823
v 0.062823 0.000000 0.062823
v -0.062823 0.000000 0.062823
v 0.083423 0.157915 0.070431
v -0.083423 0.157915 0.070431
v -0.066262 0.026362 0.053270
v 0.066262 0.026362 0.053270
v 0.069844 0.157915 0.083423
v 0.069844 0.157915 -0.083424
v 0.052682 0.026362 -0.066262
v 0.052682 0.026362 0.066262
v -0.070347 0.157915 0.083423
v -0.053186 0.026362 0.066262
v -0.070347 0.157915 -0.083424
v -0.053186 0.026362 -0.066262
v -0.083423 0.157915 -0.070378
v -0.066262 0.026362 -0.053216
v 0.083423 0.157915 -0.070378
v 0.066262 0.026362 -0.053216
v -0.070347 0.158174 0.081440
v 0.069844 0.158174 0.081440
v 0.052682 0.026621 0.064278
v -0.053186 0.026621 0.064278
v -0.081440 0.158174 0.070431
v -0.064278 0.026621 0.053270
v -0.064278 0.026621 -0.053216
v -0.081440 0.158174 -0.070378
v 0.069844 0.158174 -0.081440
v -0.070347 0.158174 -0.081440
v -0.053186 0.026621 -0.064278
v 0.052682 0.026621 -0.064278
v 0.064278 0.026621 0.053270
v 0.081440 0.158174 0.070431
v 0.081440 0.158174 -0.070378
v 0.064278 0.026621 -0.053216
v 0.005651 0.256246 0.009862
v 0.011344 0.256246 -0.000000
v 0.005651 0.256246 -0.009862
v -0.005737 0.256246 -0.009862
v -0.011431 0.256246 -0.000000
v -0.005737 0.256246 0.009862
v 0.005651 0.259534 0.009862
v 0.011344 0.259534 -0.000000
v 0.005651 0.259534 -0.009862
v -0.005737 0.259534 -0.009862
v -0.011431 0.259534 -0.000000
v -0.005737 0.259534 0.009862
v -0.099972 0.161055 0.099971
v -0.099972 0.161055 -0.099972
v 0.099972 0.161055 0.099971
v 0.099972 0.161055 -0.099972
vt 0.961421 0.620299
vt 0.811671 0.812760
vt 0.811672 0.770049
vt 0.780302 0.774612
vt 0.777423 0.784433
vt 0.773040 0.781643
vt 0.780328 0.808738
vt 0.790500 0.806331
vt 0.790417 0.811400
vt 0.809897 0.792033
vt 0.802800 0.784408
vt 0.807271 0.781887
vt 0.770606 0.791686
vt 0.777657 0.799124
vt 0.773167 0.801545
vt 0.800395 0.808928
vt 0.803139 0.799133
vt 0.807540 0.801785
vt 0.779670 0.797982
vt 0.775680 0.791830
vt 0.779444 0.785631
vt 0.901254 0.262117
vt 0.894892 0.256802
vt 0.901254 0.256917
vt 0.926226 0.263266
vt 0.920115 0.257214
vt 0.926226 0.257024
vt 0.913564 0.265055
vt 0.907130 0.257038
vt 0.913406 0.257214
vt 0.932112 0.256867
vt 0.907130 0.271215
vt 0.907130 0.263478
vt 0.894892 0.271273
vt 0.901254 0.310063
vt 0.894891 0.309985
vt 0.919957 0.270754
vt 0.926226 0.309933
vt 0.919957 0.309848
vt 0.913564 0.309848
vt 0.907130 0.309928
vt 0.901254 0.271417
vt 0.926226 0.271170
vt 0.932112 0.310070
vt 0.913564 0.270754
vt 0.907130 0.356715
vt 0.901254 0.356652
vt 0.932112 0.356653
vt 0.926226 0.356716
vt 0.919956 0.356768
vt 0.913564 0.356768
vt 0.894892 0.356686
vt 0.901254 0.403597
vt 0.894891 0.403533
vt 0.926226 0.403498
vt 0.919956 0.403416
vt 0.913564 0.403416
vt 0.907130 0.403497
vt 0.932112 0.403597
vt 0.932112 0.449906
vt 0.926226 0.449983
vt 0.919956 0.450043
vt 0.913564 0.450043
vt 0.901254 0.449906
vt 0.894891 0.449787
vt 0.907130 0.449983
vt 0.907130 0.496646
vt 0.901254 0.496671
vt 0.932112 0.496672
vt 0.926226 0.496647
vt 0.919956 0.496550
vt 0.913564 0.496550
vt 0.894891 0.496679
vt 0.894891 0.533673
vt 0.910039 0.543926
vt 0.907203 0.546184
vt 0.919956 0.528945
vt 0.920715 0.542197
vt 0.918033 0.541453
vt 0.907130 0.529343
vt 0.915487 0.541453
vt 0.912801 0.542199
vt 0.901254 0.530806
vt 0.926226 0.529345
vt 0.923464 0.543887
vt 0.913564 0.528945
vt 0.932112 0.530779
vt 0.919305 0.543658
vt 0.914214 0.543658
vt 0.918032 0.545863
vt 0.915487 0.545863
vt 0.932112 0.271371
vt 0.932112 0.262057
vt 0.919957 0.265055
vt 0.894892 0.261864
vt 0.789705 0.479973
vt 0.795457 0.513751
vt 0.773686 0.489867
vt 0.854110 0.504891
vt 0.820984 0.513756
vt 0.842744 0.489881
vt 0.826723 0.479989
vt 0.808221 0.508821
vt 0.808216 0.476532
vt 0.791262 0.519304
vt 0.762337 0.504891
vt 0.815062 0.510099
vt 0.801378 0.510094
vt 0.801042 0.797965
vt 0.797823 0.804382
vt 0.790433 0.803977
vt 0.790021 0.779477
vt 0.797315 0.779188
vt 0.800871 0.785583
vt 0.782747 0.779173
vt 0.783090 0.804338
vt 0.804823 0.791844
vt 0.799966 0.774807
vt 0.789969 0.777138
vt 0.790067 0.772098
vt 0.000000 0.616170
vt 0.211805 0.578658
vt 0.034695 0.653624
vt 0.619211 0.620300
vt 0.768961 0.812760
vt 0.619211 0.962509
vt 0.366558 0.797246
vt 0.333747 0.787233
vt 0.768961 0.770049
vt 0.574428 0.608871
vt 0.388567 0.388995
vt 0.609546 0.609557
vt 0.374046 0.763650
vt 0.963297 0.964385
vt 0.643223 0.995656
vt 0.617336 0.964385
vt 0.554422 0.252175
vt 0.796776 0.366215
vt 0.763227 0.373724
vt 0.083809 0.916927
vt 0.099549 0.886363
vt 0.608146 0.575281
vt 0.526947 0.209144
vt 0.652506 0.034674
vt 0.578307 0.210896
vt 0.437144 0.404601
vt 0.565605 0.608671
vt 0.403424 0.438191
vt 0.252103 0.555074
vt 0.210049 0.586675
vt 0.325312 0.784666
vt 0.876103 0.103299
vt 0.885368 0.099089
vt 0.586251 0.208540
vt 0.787113 0.332446
vt 0.783621 0.323744
vt 0.752782 0.375957
vt 0.259423 0.558311
vt 0.374664 0.755744
vt 0.041686 0.657206
vt 0.556309 0.260157
vt 0.403476 0.446152
vt 0.208977 0.527715
vt 0.915923 0.083241
vt 0.615007 0.000000
vt 0.655892 0.041720
vt 0.445670 0.404687
vt 0.606738 0.565766
vt 0.104162 0.877959
vt 0.961421 0.962509
vt 0.617336 0.618424
vt 0.937409 0.587153
vt 0.963297 0.618424
vt 0.586065 0.644311
vt 0.994568 0.938497
vt 0.070258 0.348125
vt 0.825185 0.519304
vt 0.937409 0.995656
vt 0.643223 0.587153
vt 0.586065 0.938497
vt 0.994568 0.644311
vt 0.249848 0.209406
vn 0.6565 0.3716 0.6565
vn 0.3164 0.8943 -0.3164
vn 0.3164 0.8943 0.3164
vn -0.3196 0.7691 0.5535
vn -0.6564 0.6524 0.3790
vn -0.5510 0.7715 0.3181
vn -0.3196 0.7691 -0.5535
vn -0.0000 0.6524 -0.7579
vn 0.0000 0.7715 -0.6363
vn 0.6392 0.7691 0.0000
vn 0.6564 0.6524 0.3790
vn 0.5510 0.7715 0.3181
vn -0.6392 0.7691 -0.0000
vn -0.6564 0.6524 -0.3790
vn -0.5510 0.7715 -0.3181
vn 0.3196 0.7691 -0.5535
vn 0.6564 0.6524 -0.3790
vn 0.5510 0.7715 -0.3181
vn -0.3529 0.9133 -0.2036
vn -0.7564 0.6541 -0.0000
vn -0.3529 0.9133 0.2036
vn -0.8622 0.1901 0.4696
vn -0.8449 0.2191 -0.4880
vn -0.8449 0.2191 0.4880
vn -0.0608 0.0479 -0.9970
vn 0.8453 0.2179 -0.4879
vn 0.0003 0.2185 -0.9758
vn 0.8391 -0.1495 0.5230
vn 0.0003 0.2185 0.9758
vn 0.8453 0.2179 0.4879
vn -0.0902 0.0832 0.9924
vn -0.0612 0.0460 0.9971
vn -0.6269 0.6329 -0.4543
vn -0.5849 0.5862 0.5606
vn -0.5850 0.5859 -0.5608
vn 0.5925 -0.5762 -0.5630
vn 0.0870 -0.0848 -0.9926
vn 0.6299 -0.6301 -0.4541
vn 0.6297 -0.6302 0.4542
vn 0.0871 -0.0852 0.9926
vn -0.6269 0.6333 0.4538
vn -0.0915 0.0821 -0.9924
vn 0.5953 -0.5747 0.5615
vn 0.1259 -0.0003 0.9920
vn -0.8263 -0.0021 0.5633
vn -0.8263 -0.0025 -0.5632
vn 0.1260 -0.0001 -0.9920
vn 0.8916 0.0024 -0.4528
vn 0.8916 0.0023 0.4527
vn -0.5817 -0.5899 0.5600
vn -0.5820 -0.5897 -0.5599
vn 0.0841 0.0872 -0.9926
vn 0.6278 0.6322 -0.4541
vn 0.6277 0.6323 0.4541
vn 0.0839 0.0872 0.9927
vn -0.0016 -0.8274 -0.5617
vn 0.0010 0.1236 -0.9923
vn 0.0009 0.8913 -0.4534
vn 0.0009 0.8913 0.4534
vn -0.0016 -0.8274 0.5617
vn 0.0011 0.1236 0.9923
vn -0.0891 0.0860 0.9923
vn 0.5860 -0.5847 0.5609
vn 0.5853 -0.5851 -0.5612
vn -0.0884 0.0859 -0.9924
vn -0.6315 0.6293 -0.4530
vn -0.6316 0.6290 0.4532
vn 0.7704 -0.4175 -0.4818
vn 0.3837 -0.8558 0.3470
vn 0.3829 -0.8584 -0.3412
vn -0.8611 0.1704 -0.4791
vn -0.2087 -0.6873 -0.6958
vn -0.7909 -0.5026 -0.3492
vn -0.0526 -0.1309 0.9900
vn -0.7917 -0.5049 0.3439
vn -0.1994 -0.6900 0.6958
vn 0.7690 -0.4197 0.4822
vn -0.0540 -0.1303 -0.9900
vn -0.8610 0.1728 0.4784
vn -0.8619 0.1906 -0.4699
vn 0.8385 -0.1470 -0.5246
vn -0.0001 0.9131 0.4078
vn -0.0001 0.9131 -0.4078
vn 0.3534 0.9129 -0.2042
vn 0.3534 0.9129 0.2041
vn 0.3782 0.6541 -0.6551
vn 0.3782 0.6541 0.6551
vn -0.3782 0.6541 0.6551
vn -0.3782 0.6541 -0.6551
vn 0.7564 0.6541 0.0000
vn 0.3196 0.7691 0.5535
vn 0.0000 0.6524 0.7579
vn 0.0000 0.7715 0.6363
vn -0.5405 -0.6448 -0.5405
vn -0.9261 0.2259 -0.3022
vn -0.9261 0.2259 0.3022
vn -0.6565 0.3716 0.6565
vn -0.3164 0.8943 -0.3164
vn -0.6565 0.3716 -0.6565
vn -0.0390 -0.9985 0.0390
vn -0.8778 -0.3767 -0.2958
vn -0.3164 0.8943 0.3164
vn -0.2958 -0.3767 0.8778
vn 0.5405 -0.6448 0.5405
vn 0.0390 -0.9985 0.0390
vn 0.2958 -0.3767 0.8778
vn 0.5082 -0.6953 -0.5082
vn -0.0390 -0.9985 -0.0390
vn -0.5082 -0.6953 -0.5082
vn 0.9261 0.2259 0.3022
vn 0.0390 -0.9985 -0.0390
vn 0.8778 -0.3767 0.2958
vn -0.8778 -0.3767 0.2958
vn 0.8778 -0.3767 -0.2958
vn 0.5405 -0.6448 -0.5405
vn 0.3022 0.2259 -0.9261
vn -0.3022 0.2259 -0.9261
vn 0.9261 0.2259 -0.3022
vn -0.6167 -0.6113 0.4960
vn -0.3022 0.2259 0.9261
vn 0.3022 0.2259 0.9261
vn -0.6583 0.5288 -0.5357
vn -0.4960 -0.6113 -0.6167
vn 0.6167 -0.6113 -0.4960
vn 0.2958 -0.3767 -0.8778
vn -0.5357 0.5288 -0.6583
vn -0.2958 -0.3767 -0.8778
vn -0.6167 -0.6113 -0.4960
vn 0.4960 -0.6113 0.6167
vn 0.5357 0.5288 0.6583
vn 0.6167 -0.6113 0.4960
vn -0.6583 0.5288 0.5357
vn 0.6583 0.5288 0.5357
vn -0.5357 0.5288 0.6583
vn -0.5405 -0.6448 0.5405
vn 0.5357 0.5288 -0.6583
vn 0.6583 0.5288 -0.5357
vn 0.4960 -0.6113 -0.6167
vn -0.4960 -0.6113 0.6167
vn 0.6565 0.3716 -0.6565
vn -0.5082 -0.6953 0.5082
vn 0.5082 -0.6953 0.5082
usemtl lantern
s 1
f 141/1/1 82/2/2 83/3/3
f 132/4/4 20/5/5 14/6/6
f 130/7/7 18/8/8 12/9/9
f 128/10/10 16/11/11 10/12/12
f 131/13/13 19/14/14 13/15/15
f 129/16/16 17/17/17 11/18/18
f 25/19/19 137/20/20 26/21/21
f 32/22/22 87/23/23 86/24/24
f 30/25/25 89/26/26 88/27/27
f 28/28/28 85/29/29 90/30/30
f 85/29/29 32/22/22 86/24/24
f 87/31/23 30/25/25 88/27/27
f 33/32/31 32/22/22 27/33/32
f 37/34/33 44/35/34 43/36/35
f 35/37/36 42/38/37 41/39/38
f 33/32/31 40/40/39 39/41/40
f 38/42/41 39/41/40 44/35/34
f 36/43/42 43/44/35 42/38/37
f 34/45/43 41/39/38 40/40/39
f 44/35/34 45/46/44 50/47/45
f 42/38/37 49/48/46 48/49/47
f 40/40/39 47/50/48 46/51/49
f 43/36/35 50/47/45 49/52/46
f 41/39/38 48/49/47 47/50/48
f 39/41/40 46/51/49 45/46/44
f 49/52/46 56/53/50 55/54/51
f 47/50/48 54/55/52 53/56/53
f 45/46/44 52/57/54 51/58/55
f 50/47/45 51/58/55 56/53/50
f 48/49/47 55/59/51 54/55/52
f 46/51/49 53/56/53 52/57/54
f 54/55/52 61/60/56 60/61/57
f 52/57/54 59/62/58 58/63/59
f 55/54/51 62/64/60 61/65/56
f 53/56/53 60/61/57 59/62/58
f 51/58/55 58/63/59 57/66/61
f 56/53/50 57/66/61 62/64/60
f 62/64/60 63/67/62 68/68/63
f 60/61/57 67/69/64 66/70/65
f 58/63/59 65/71/66 64/72/67
f 61/65/56 68/68/63 67/73/64
f 59/62/58 66/70/65 65/71/66
f 57/66/61 64/72/67 63/67/62
f 76/74/68 74/75/69 73/76/70
f 78/77/71 72/78/72 71/79/73
f 80/80/74 70/81/75 69/82/76
f 75/83/77 69/82/76 74/75/69
f 77/84/78 73/85/70 72/78/72
f 79/86/79 71/79/73 70/81/75
f 64/72/67 78/77/71 79/86/79
f 66/70/65 76/87/68 77/84/78
f 68/68/63 80/80/74 75/83/77
f 63/67/62 79/86/79 80/80/74
f 65/71/66 77/84/78 78/77/71
f 67/73/64 75/83/77 76/74/68
f 70/81/75 72/88/72 69/89/76
f 69/89/76 73/90/70 74/91/69
f 37/92/33 30/25/25 31/93/80
f 35/37/36 28/28/28 29/94/81
f 32/22/22 37/34/33 31/95/80
f 30/25/25 35/37/36 29/94/81
f 28/28/28 33/32/31 27/33/32
f 21/96/82 86/97/24 26/98/21
f 25/99/19 88/100/27 24/101/83
f 23/102/84 90/103/30 22/104/85
f 26/98/21 87/105/23 25/106/19
f 24/101/83 89/107/26 23/102/84
f 22/104/85 85/108/29 21/96/82
f 89/26/26 28/28/28 90/30/30
f 23/109/84 135/110/86 24/111/83
f 21/112/82 133/113/87 22/114/85
f 26/21/21 20/5/5 138/115/88
f 24/111/83 18/8/8 136/116/89
f 22/114/85 16/11/11 134/117/90
f 127/118/91 15/119/92 9/120/93
f 91/121/94 97/122/95 108/123/96
f 139/124/97 81/125/98 140/126/99
f 127/118/91 83/3/3 10/12/12
f 97/122/95 1/127/100 96/128/101
f 141/1/1 84/129/102 139/124/97
f 99/130/103 93/131/104 3/132/105
f 99/130/103 1/127/100 103/133/106
f 7/134/107 2/135/108 6/136/109
f 110/137/110 4/138/111 109/139/112
f 96/128/101 2/140/108 107/141/113
f 4/138/111 95/142/114 109/139/112
f 92/143/115 106/144/116 101/145/117
f 95/142/114 93/131/104 98/146/118
f 112/147/119 102/148/120 99/130/103
f 1/127/100 104/149/121 103/133/106
f 2/140/108 108/123/96 107/141/113
f 116/150/122 96/128/101 115/151/123
f 120/152/124 106/144/116 105/153/125
f 106/144/116 122/154/126 101/145/117
f 100/155/127 122/154/126 119/156/128
f 95/142/114 125/157/129 109/139/112
f 103/133/106 112/147/119 99/130/103
f 103/133/106 114/158/130 111/159/131
f 97/122/95 117/160/132 108/123/96
f 126/161/133 109/139/112 125/157/129
f 111/159/131 113/162/134 112/147/119
f 94/163/135 102/148/120 104/149/121
f 93/131/104 110/137/110 98/146/118
f 2/164/108 106/144/116 91/165/94
f 119/156/128 121/166/136 120/152/124
f 95/142/114 123/167/137 124/168/138
f 107/141/113 117/160/132 118/169/139
f 101/145/117 4/138/111 92/143/115
f 140/126/99 82/2/2 142/170/140
f 5/171/141 3/172/105 8/173/142
f 100/155/127 2/164/108 4/138/111
f 100/155/127 120/152/124 105/153/125
f 102/148/120 114/158/130 104/149/121
f 6/136/109 1/174/100 5/171/141
f 8/173/142 4/175/111 7/134/107
f 110/137/110 123/167/137 98/146/118
f 107/141/113 115/151/123 96/128/101
f 118/169/139 116/150/122 115/151/123
f 124/168/138 126/161/133 125/157/129
f 91/176/94 93/131/104 94/163/135
f 10/12/12 133/113/87 127/118/91
f 12/9/9 135/110/86 129/16/16
f 14/6/6 137/20/20 131/13/13
f 11/18/18 134/117/90 128/10/10
f 13/15/15 136/116/89 130/7/7
f 9/120/93 138/115/88 132/4/4
f 20/5/5 26/21/21 137/20/20
f 25/19/19 19/14/14 137/20/20
f 18/8/8 24/111/83 135/110/86
f 23/109/84 17/17/17 135/110/86
f 16/11/11 22/114/85 133/113/87
f 21/112/82 15/119/92 133/113/87
f 138/115/88 15/119/92 21/112/82
f 21/112/82 26/21/21 138/115/88
f 136/116/89 19/14/14 25/19/19
f 25/19/19 24/111/83 136/116/89
f 134/117/90 17/17/17 23/109/84
f 23/109/84 22/114/85 134/117/90
f 83/3/3 128/10/10 10/12/12
f 128/10/10 82/2/2 11/18/18
f 82/2/2 129/16/16 11/18/18
f 129/16/16 82/2/2 12/9/9
f 12/9/9 81/125/98 130/7/7
f 130/7/7 81/125/98 13/15/15
f 81/125/98 131/13/13 13/15/15
f 131/13/13 84/129/102 14/6/6
f 14/6/6 84/129/102 132/4/4
f 132/4/4 84/129/102 9/120/93
f 9/120/93 83/3/3 127/118/91
f 83/3/3 82/2/2 128/10/10
f 81/125/98 84/129/102 131/13/13
f 9/120/93 84/129/102 83/3/3
f 82/2/2 81/125/98 12/9/9
f 6/136/109 142/170/140 7/134/107
f 8/173/142 139/124/97 5/171/141
f 5/171/141 140/126/99 6/136/109
f 8/173/142 142/170/140 141/1/1
f 141/1/1 142/170/140 82/2/2
f 132/4/4 138/115/88 20/5/5
f 130/7/7 136/116/89 18/8/8
f 128/10/10 134/117/90 16/11/11
f 131/13/13 137/20/20 19/14/14
f 129/16/16 135/110/86 17/17/17
f 32/22/22 31/95/80 87/23/23
f 30/25/25 29/94/81 89/26/26
f 28/28/28 27/33/32 85/29/29
f 85/29/29 27/33/32 32/22/22
f 87/31/23 31/93/80 30/25/25
f 33/32/31 38/42/41 32/22/22
f 37/34/33 38/42/41 44/35/34
f 35/37/36 36/43/42 42/38/37
f 33/32/31 34/45/43 40/40/39
f 38/42/41 33/32/31 39/41/40
f 36/43/42 37/92/33 43/44/35
f 34/45/43 35/37/36 41/39/38
f 44/35/34 39/41/40 45/46/44
f 42/38/37 43/44/35 49/48/46
f 40/40/39 41/39/38 47/50/48
f 43/36/35 44/35/34 50/47/45
f 41/39/38 42/38/37 48/49/47
f 39/41/40 40/40/39 46/51/49
f 49/52/46 50/47/45 56/53/50
f 47/50/48 48/49/47 54/55/52
f 45/46/44 46/51/49 52/57/54
f 50/47/45 45/46/44 51/58/55
f 48/49/47 49/48/46 55/59/51
f 46/51/49 47/50/48 53/56/53
f 54/55/52 55/59/51 61/60/56
f 52/57/54 53/56/53 59/62/58
f 55/54/51 56/53/50 62/64/60
f 53/56/53 54/55/52 60/61/57
f 51/58/55 52/57/54 58/63/59
f 56/53/50 51/58/55 57/66/61
f 62/64/60 57/66/61 63/67/62
f 60/61/57 61/60/56 67/69/64
f 58/63/59 59/62/58 65/71/66
f 61/65/56 62/64/60 68/68/63
f 59/62/58 60/61/57 66/70/65
f 57/66/61 58/63/59 64/72/67
f 76/74/68 75/83/77 74/75/69
f 78/77/71 77/84/78 72/78/72
f 80/80/74 79/86/79 70/81/75
f 75/83/77 80/80/74 69/82/76
f 77/84/78 76/87/68 73/85/70
f 79/86/79 78/77/71 71/79/73
f 64/72/67 65/71/66 78/77/71
f 66/70/65 67/69/64 76/87/68
f 68/68/63 63/67/62 80/80/74
f 63/67/62 64/72/67 79/86/79
f 65/71/66 66/70/65 77/84/78
f 67/73/64 68/68/63 75/83/77
f 70/81/75 71/79/73 72/88/72
f 69/89/76 72/88/72 73/90/70
f 37/92/33 36/43/42 30/25/25
f 35/37/36 34/45/43 28/28/28
f 32/22/22 38/42/41 37/34/33
f 30/25/25 36/43/42 35/37/36
f 28/28/28 34/45/43 33/32/31
f 21/96/82 85/108/29 86/97/24
f 25/99/19 87/177/23 88/100/27
f 23/102/84 89/107/26 90/103/30
f 26/98/21 86/97/24 87/105/23
f 24/101/83 88/100/27 89/107/26
f 22/104/85 90/103/30 85/108/29
f 89/26/26 29/94/81 28/28/28
f 127/118/91 133/113/87 15/119/92
f 91/121/94 94/163/135 97/122/95
f 139/124/97 84/129/102 81/125/98
f 97/122/95 94/163/135 1/127/100
f 141/1/1 83/3/3 84/129/102
f 99/130/103 102/148/120 93/131/104
f 99/130/103 3/132/105 1/127/100
f 7/134/107 4/178/111 2/135/108
f 110/137/110 92/143/115 4/138/111
f 96/128/101 1/127/100 2/140/108
f 4/138/111 3/132/105 95/142/114
f 92/143/115 91/165/94 106/144/116
f 95/142/114 3/132/105 93/131/104
f 112/147/119 113/162/134 102/148/120
f 1/127/100 94/163/135 104/149/121
f 2/140/108 91/121/94 108/123/96
f 116/150/122 97/122/95 96/128/101
f 120/152/124 121/166/136 106/144/116
f 106/144/116 121/166/136 122/154/126
f 100/155/127 101/145/117 122/154/126
f 95/142/114 124/168/138 125/157/129
f 103/133/106 111/159/131 112/147/119
f 103/133/106 104/149/121 114/158/130
f 97/122/95 116/150/122 117/160/132
f 126/161/133 110/137/110 109/139/112
f 111/159/131 114/158/130 113/162/134
f 94/163/135 93/131/104 102/148/120
f 93/131/104 92/143/115 110/137/110
f 2/164/108 105/153/125 106/144/116
f 119/156/128 122/154/126 121/166/136
f 95/142/114 98/146/118 123/167/137
f 107/141/113 108/123/96 117/160/132
f 101/145/117 100/155/127 4/138/111
f 140/126/99 81/125/98 82/2/2
f 5/171/141 1/179/100 3/172/105
f 100/155/127 105/153/125 2/164/108
f 100/155/127 119/156/128 120/152/124
f 102/148/120 113/162/134 114/158/130
f 6/136/109 2/180/108 1/174/100
f 8/173/142 3/181/105 4/175/111
f 110/137/110 126/161/133 123/167/137
f 107/141/113 118/169/139 115/151/123
f 118/169/139 117/160/132 116/150/122
f 124/168/138 123/167/137 126/161/133
f 91/176/94 92/182/115 93/131/104
f 10/12/12 16/11/11 133/113/87
f 12/9/9 18/8/8 135/110/86
f 14/6/6 20/5/5 137/20/20
f 11/18/18 17/17/17 134/117/90
f 13/15/15 19/14/14 136/116/89
f 9/120/93 15/119/92 138/115/88
f 6/136/109 140/126/99 142/170/140
f 8/173/142 141/1/1 139/124/97
f 5/171/141 139/124/97 140/126/99
f 8/173/142 7/134/107 142/170/140
